<svg xmlns="http://www.w3.org/2000/svg" width="19" height="18.764" viewBox="0 0 19 18.764">
  <g id="Group_1" data-name="Group 1" transform="translate(-45 -37.236)">
    <circle id="Ellipse_3" data-name="Ellipse 3" cx="6.5" cy="6.5" r="6.5" transform="translate(51 40)"/>
    <rect id="Rectangle_2" data-name="Rectangle 2" width="8" height="3" rx="1" transform="translate(46 45)"/>
    <circle id="Ellipse_11" data-name="Ellipse 11" cx="1" cy="1" r="1" transform="translate(58 42)" fill="#cb2121"/>
    <circle id="Ellipse_14" data-name="Ellipse 14" cx="1" cy="1" r="1" transform="translate(60 47)" fill="#cb2121"/>
    <circle id="Ellipse_17" data-name="Ellipse 17" cx="1" cy="1" r="1" transform="translate(58 49)" fill="#cb2121"/>
    <circle id="Ellipse_12" data-name="Ellipse 12" cx="0.5" cy="0.5" r="0.5" transform="translate(58 42)" fill="#2c21cb"/>
    <circle id="Ellipse_15" data-name="Ellipse 15" cx="0.5" cy="0.5" r="0.5" transform="translate(60 47)" fill="#2c21cb"/>
    <circle id="Ellipse_18" data-name="Ellipse 18" cx="0.5" cy="0.5" r="0.5" transform="translate(58 49)" fill="#2c21cb"/>
    <circle id="Ellipse_13" data-name="Ellipse 13" cx="0.5" cy="0.5" r="0.5" transform="translate(59 43)" fill="#2c21cb"/>
    <circle id="Ellipse_16" data-name="Ellipse 16" cx="0.5" cy="0.5" r="0.5" transform="translate(61 48)" fill="#2c21cb"/>
    <circle id="Ellipse_19" data-name="Ellipse 19" cx="0.5" cy="0.5" r="0.5" transform="translate(59 50)" fill="#2c21cb"/>
    <path id="Subtraction_1" data-name="Subtraction 1" d="M10.034,18.764h0A12.944,12.944,0,0,1,2.885,15.58,8.465,8.465,0,0,1,0,9.382a8.465,8.465,0,0,1,2.885-6.2A12.944,12.944,0,0,1,10.034,0V3.111C6.342,3.9,3.763,6.58,3.763,9.632s2.579,5.733,6.271,6.521v2.611Z" transform="translate(45 37.236)" fill="#cb2121"/>
  </g>
</svg>
