<svg xmlns="http://www.w3.org/2000/svg" width="8.5" height="8.5" viewBox="0 0 8.5 8.5">
  <path id="Icon_awesome-twitter-square" data-name="Icon awesome-twitter-square" d="M7.589,2.25H.911A.911.911,0,0,0,0,3.161V9.839a.911.911,0,0,0,.911.911H7.589A.911.911,0,0,0,8.5,9.839V3.161A.911.911,0,0,0,7.589,2.25ZM6.661,5.263c0,.053,0,.108,0,.161a3.516,3.516,0,0,1-3.54,3.54,3.524,3.524,0,0,1-1.911-.558,2.622,2.622,0,0,0,.3.015,2.5,2.5,0,0,0,1.544-.531A1.246,1.246,0,0,1,1.9,7.027,1.341,1.341,0,0,0,2.457,7a1.244,1.244,0,0,1-1-1.222V5.768a1.244,1.244,0,0,0,.562.157,1.242,1.242,0,0,1-.554-1.036,1.229,1.229,0,0,1,.169-.628A3.533,3.533,0,0,0,4.2,5.563,1.247,1.247,0,0,1,6.326,4.426a2.438,2.438,0,0,0,.789-.3,1.241,1.241,0,0,1-.546.685,2.476,2.476,0,0,0,.717-.194A2.619,2.619,0,0,1,6.661,5.263Z" transform="translate(0 -2.25)"/>
</svg>
