<svg xmlns="http://www.w3.org/2000/svg" width="8.5" height="8.5" viewBox="0 0 8.5 8.5">
  <path id="Icon_metro-instagram" data-name="Icon metro-instagram" d="M9.66,1.928H3.982A1.415,1.415,0,0,0,2.571,3.339V9.017a1.415,1.415,0,0,0,1.411,1.411H9.66a1.415,1.415,0,0,0,1.411-1.411V3.339A1.415,1.415,0,0,0,9.66,1.928ZM5.292,5.647H8.35a1.619,1.619,0,1,1-3.058,0Zm4.717,0V8.834a.533.533,0,0,1-.531.531H4.164a.533.533,0,0,1-.531-.531V5.647h.831a2.416,2.416,0,1,0,4.713,0Zm0-1.86a.266.266,0,0,1-.266.266H9.211a.266.266,0,0,1-.266-.266V3.256a.266.266,0,0,1,.266-.266h.531a.266.266,0,0,1,.266.266Z" transform="translate(-2.571 -1.928)"/>
</svg>
